{"title":"You.Only.Live.Twice.1967.1080p.BluRay.H264.AAC-RARBG","uid":11877461,"size":2451410373,"categoryP":"video","categoryS":"hd___movies","magnet":"?xt=urn:btih:369ab33331770b3528e3c6e469e793159ee48792&amp;dn=You.Only.Live.Twice.1967.1080p.BluRay.H264.AAC-RARBG&amp;tr=udp%3A%2F%2Ftracker.openbittorrent.com%3A80&amp;tr=udp%3A%2F%2Fopen.demonii.com%3A1337&amp;tr=udp%3A%2F%2Ftracker.coppersurfer.tk%3A6969&amp;tr=udp%3A%2F%2Fexodus.desync.com%3A6969","seeders":0,"leechers":3,"uploader":"vickey1992","files":7,"time":1430581558,"description":"Video\nID                                       : 1\nFormat                                   : AVC\nFormat/Info                              : Advanced Video Codec\nFormat profile                           : &lt;a class=&quot;__cf_email__&quot; href=&quot;/cdn-cgi/l/email-protection&quot; data-cfemail=&quot;efa7868887afa3dbc1de&quot;&gt;[email&amp;#160;protected]&lt;/a&gt;&lt;script cf-hash='f9e31' type=&quot;text/javascript&quot;&gt;\n/* &lt;![CDATA[ */!function(){try{var t=&quot;currentScript&quot;in document?document.currentScript:function(){for(var t=document.getElementsByTagName(&quot;script&quot;),e=t.length;e--;)if(t[e].getAttribute(&quot;cf-hash&quot;))return t[e]}();if(t&amp;&amp;t.previousSibling){var e,r,n,i,c=t.previousSibling,a=c.getAttribute(&quot;data-cfemail&quot;);if(a){for(e=&quot;&quot;,r=parseInt(a.substr(0,2),16),n=2;a.length-n;n+=2)i=parseInt(a.substr(n,2),16)^r,e+=String.fromCharCode(i);e=document.createTextNode(e),c.parentNode.replaceChild(e,c)}}}catch(u){}}();/* ]]&gt; */&lt;/script&gt;\nFormat settings, CABAC                   : Yes\nFormat settings, ReFrames                : 4 frames\nCodec ID                                 : avc1\nCodec ID/Info                            : Advanced Video Coding\nDuration                                 : 1h 56mn\nBit rate                                 : 2 500 Kbps\nWidth                                    : 1 920 pixels\nHeight                                   : 816 pixels\nDisplay aspect ratio                     : 2.35:1\nFrame rate mode                          : Constant\nFrame rate                               : 23.976 fps\nColor space                              : YUV\nChroma subsampling                       : 4:2:0\nBit depth                                : 8 bits\nScan type                                : Progressive\nBits/(Pixel*Frame)                       : 0.067\nStream size                              : 2.04 GiB (92%)\nWriting library                          : x264 core 142 r2491M 24e4fed\nEncoding settings                        : cabac=1 / ref=4 / deblock=1:-1:-1 / analyse=0x3:0x113 / me=umh / subme=9 / psy=1 / psy_rd=1.00:0.15 / mixed_ref=1 / me_range=24 / chroma_me=1 / trellis=2 / 8x8dct=1 / cqm=0 / deadzone=21,11 / fast_pskip=1 / chroma_qp_offset=-3 / threads=32 / lookahead_threads=4 / sliced_threads=0 / nr=0 / decimate=1 / interlaced=0 / bluray_compat=0 / constrained_intra=0 / bframes=3 / b_pyramid=2 / b_adapt=1 / b_bias=0 / direct=1 / weightb=1 / open_gop=0 / weightp=2 / keyint=250 / keyint_min=25 / scenecut=40 / intra_refresh=0 / rc_lookahead=50 / rc=2pass / mbtree=1 / bitrate=2500 / ratetol=1.0 / qcomp=0.60 / qpmin=0 / qpmax=69 / qpstep=4 / cplxblur=20.0 / qblur=0.5 / vbv_maxrate=31250 / vbv_bufsize=31250 / nal_hrd=none / filler=0 / ip_ratio=1.40 / aq=3:1.00\nEncoded date                             : UTC 1904-01-01 00:00:00\nTagged date                              : UTC 1904-01-01 00:00:00\n\nAudio\nID                                       : 2\nFormat                                   : AAC\nFormat/Info                              : Advanced Audio Codec\nFormat profile                           : LC\nCodec ID                                 : 40\nDuration                                 : 1h 56mn\nBit rate mode                            : Constant\nBit rate                                 : 224 Kbps\nChannel(s)                               : 2 channels\nChannel(s)_Original                      : 6 channels\nChannel positions                        : Front: L C R, Side: L R, LFE\nSampling rate                            : 48.0 KHz\nCompression mode                         : Lossy\nStream size                              : 187 MiB (8%)\nLanguage                                 : English\nEncoded date                             : UTC 1904-01-01 00:00:00\nTagged date                              : UTC 1904-01-01 00:00:00\n\nMenu #1\nID                                       : 3\nCodec ID                                 : text\nDuration                                 : 1h 56mn\nLanguage                                 : English\nEncoded date                             : UTC 1904-01-01 00:00:00\nTagged date                              : UTC 1904-01-01 00:00:00\nBit rate mode                            : CBR\n00:00:00.000                             : 00:00:00.000\n00:05:02.136                             : 00:05:02.093\n00:06:10.580                             : 00:06:10.537\n00:08:54.118                             : 00:08:54.075\n00:11:49.418                             : 00:11:49.375\n00:15:23.132                             : 00:15:23.089\n00:19:25.958                             : 00:19:25.915\n00:24:18.959                             : 00:24:18.916\n00:28:19.699                             : 00:28:19.656\n00:31:28.763                             : 00:31:28.720\n00:33:09.155                             : 00:33:09.112\n00:36:14.632                             : 00:36:14.589\n00:40:48.114                             : 00:40:48.071\n00:44:17.865                             : 00:44:17.822\n00:46:59.860                             : 00:46:59.817\n00:51:13.822                             : 00:51:13.779\n00:54:37.317                             : 00:54:37.274\n00:58:58.745                             : 00:58:58.702\n01:03:27.889                             : 01:03:27.846\n01:09:02.014                             : 01:09:01.971\n01:12:26.760                             : 01:12:26.717\n01:14:07.111                             : 01:14:07.068\n01:17:33.692                             : 01:17:33.649\n01:20:25.947                             : 01:20:25.904\n01:24:25.729                             : 01:24:25.686\n01:28:42.777                             : 01:28:42.734\n01:34:54.690                             : 01:34:54.647\n01:35:50.037                             : 01:35:49.994\n01:38:13.222                             : 01:38:13.179\n01:44:26.345                             : 01:44:26.302\n01:48:19.578                             : 01:48:19.535\n01:53:25.550                             : 01:53:25.507\n\nMenu #2\n00:00:00.043                             : 00:00:00.000\n00:05:02.136                             : 00:05:02.093\n00:06:10.580                             : 00:06:10.537\n00:08:54.118                             : 00:08:54.075\n00:11:49.418                             : 00:11:49.375\n00:15:23.132                             : 00:15:23.089\n00:19:25.958                             : 00:19:25.915\n00:24:18.959                             : 00:24:18.916\n00:28:19.699                             : 00:28:19.656\n00:31:28.763                             : 00:31:28.720\n00:33:09.155                             : 00:33:09.112\n00:36:14.632                             : 00:36:14.589\n00:40:48.114                             : 00:40:48.071\n00:44:17.865                             : 00:44:17.822\n00:46:59.860                             : 00:46:59.817\n00:51:13.822                             : 00:51:13.779\n00:54:37.317                             : 00:54:37.274\n00:58:58.745                             : 00:58:58.702\n01:03:27.889                             : 01:03:27.846\n01:09:02.014                             : 01:09:01.971\n01:12:26.760                             : 01:12:26.717\n01:14:07.111                             : 01:14:07.068\n01:17:33.692                             : 01:17:33.649\n01:20:25.947                             : 01:20:25.904\n01:24:25.729                             : 01:24:25.686\n01:28:42.777                             : 01:28:42.734\n01:34:54.690                             : 01:34:54.647\n01:35:50.037                             : 01:35:49.994\n01:38:13.222                             : 01:38:13.179\n01:44:26.345                             : 01:44:26.302\n01:48:19.578                             : 01:48:19.535\n01:53:25.550                             : 01:53:25.507","torrent":{"xt":"urn:btih:369ab33331770b3528e3c6e469e793159ee48792","amp;dn":"You.Only.Live.Twice.1967.1080p.BluRay.H264.AAC-RARBG","amp;tr":["udp%3A%2F%2Ftracker.openbittorrent.com%3A80","udp%3A%2F%2Fopen.demonii.com%3A1337","udp%3A%2F%2Ftracker.coppersurfer.tk%3A6969","udp%3A%2F%2Fexodus.desync.com%3A6969"],"infoHash":"369ab33331770b3528e3c6e469e793159ee48792","infoHashBuffer":{"type":"Buffer","data":[54,154,179,51,49,119,11,53,40,227,198,228,105,231,147,21,158,228,135,146]},"announce":[],"urlList":[]}}